<svg width="18" height="18" viewBox="0 0 18 18" fill="none" xmlns="http://www.w3.org/2000/svg">
    <path fill-rule="evenodd" clip-rule="evenodd"
          d="M3.32942 1.18496V1.89992C2.45991 2.02325 1.59965 2.17491 0.749474 2.3524C0.590367 2.38584 0.450458 2.47901 0.359018 2.61242C0.267577 2.74583 0.231687 2.90915 0.258856 3.0682C0.471037 4.30483 1.0937 5.43568 2.02795 6.28114C2.96221 7.1266 4.15447 7.63819 5.41538 7.73464C6.08666 8.27881 6.87511 8.66257 7.71977 8.85626C7.6395 9.80206 7.31771 10.712 6.78474 11.5003H6.16391C5.29357 11.5003 4.58873 12.2003 4.58873 13.0627V15.2501H3.95865C3.45733 15.2501 2.97655 15.4477 2.62206 15.7993C2.26758 16.1509 2.06843 16.6278 2.06843 17.125C2.06843 17.47 2.3507 17.75 2.6985 17.75H15.3C15.4671 17.75 15.6274 17.6842 15.7455 17.567C15.8637 17.4497 15.9301 17.2908 15.9301 17.125C15.9301 16.6278 15.7309 16.1509 15.3764 15.7993C15.0219 15.4477 14.5412 15.2501 14.0398 15.2501H13.4098V13.0627C13.4098 12.1994 12.7041 11.5003 11.8346 11.5003H11.2137C10.681 10.7119 10.3595 9.80199 10.2796 8.85626C11.1243 8.66233 11.9127 8.27828 12.5839 7.73381C13.845 7.63753 15.0375 7.12602 15.9719 6.28055C16.9063 5.43507 17.5291 4.30412 17.7413 3.06737C17.7682 2.90832 17.7321 2.74512 17.6405 2.61187C17.5489 2.47863 17.4089 2.38566 17.2499 2.3524C16.3954 2.17337 15.5353 2.02246 14.6708 1.89992V1.18412C14.6707 1.0317 14.6145 0.884548 14.5126 0.770369C14.4108 0.65619 14.2705 0.582851 14.118 0.564153C12.4199 0.354482 10.7104 0.249563 8.99924 0.250001C7.26612 0.250001 5.5582 0.356663 3.88052 0.564153C3.72816 0.583038 3.588 0.656458 3.48636 0.770619C3.38473 0.884779 3.32946 1.03266 3.32942 1.18496ZM3.32942 3.37569C3.32942 4.3723 3.59153 5.30893 4.04938 6.12055C3.48152 5.86798 2.97378 5.4994 2.55933 5.03891C2.14487 4.57842 1.83303 4.03637 1.64418 3.44818C2.20371 3.34049 2.7656 3.24519 3.32942 3.16236V3.37569ZM14.6708 3.37569V3.16236C15.237 3.24569 15.799 3.34069 16.356 3.44818C16.1672 4.03639 15.8554 4.57846 15.4409 5.03896C15.0264 5.49946 14.5187 5.86802 13.9508 6.12055C14.4243 5.28204 14.6722 4.33676 14.6708 3.37569Z"
          fill="#4B4B4B"/>
</svg>
