<svg width="18" height="15" viewBox="0 0 18 15" fill="none" xmlns="http://www.w3.org/2000/svg">
    <path d="M14.5129 1.41447C14.7894 1.14569 15.1573 0.997094 15.5391 1.00004C15.9208 1.00299 16.2865 1.15725 16.559 1.43027C16.8315 1.7033 16.9894 2.07372 16.9995 2.46339C17.0096 2.85306 16.871 3.23149 16.6131 3.51883L8.78171 13.5196C8.64705 13.6677 8.48452 13.7866 8.30384 13.8691C8.12317 13.9515 7.92805 13.996 7.73017 13.9997C7.53229 14.0035 7.3357 13.9664 7.15215 13.8908C6.96861 13.8152 6.80188 13.7026 6.66194 13.5597L1.46852 8.25667C1.3239 8.11906 1.20789 7.95311 1.12744 7.76873C1.04698 7.58435 1.00372 7.38531 1.00023 7.18349C0.996742 6.98166 1.0331 6.78119 1.10714 6.59402C1.18117 6.40686 1.29137 6.23684 1.43116 6.0941C1.57094 5.95137 1.73745 5.83885 1.92074 5.76325C2.10404 5.68765 2.30037 5.65052 2.49803 5.65408C2.69568 5.65764 2.89061 5.70182 3.07118 5.78397C3.25175 5.86613 3.41427 5.98458 3.54903 6.13226L7.65902 10.327L14.4756 1.45856C14.4879 1.44313 14.499 1.42841 14.5129 1.41447Z"
          fill="currentColor"/>
</svg>
