<svg width="213" height="153" viewBox="0 0 213 153" fill="none" xmlns="http://www.w3.org/2000/svg">
    <path d="M64 43.698V96.6017C59.8487 97.1455 56.1586 97.495 52.9297 97.6504C49.7778 97.8835 47.164 98 45.0883 98C38.0156 98 31.6733 96.8736 26.0613 94.6207C20.4493 92.3678 15.7213 89.1439 11.8775 84.9489C8.03363 80.6762 5.07387 75.549 2.9982 69.5672C0.999399 63.5077 0 56.7491 0 49.2913C0 42.1443 0.960961 35.5799 2.88288 29.5981C4.80481 23.5386 7.64925 18.3337 11.4162 13.9834C15.2601 9.55529 20.0264 6.13714 25.7153 3.72889C31.4811 1.24296 38.1309 0 45.6649 0C48.8937 0 51.6613 0.233055 53.9676 0.699166C56.3507 1.08759 58.6571 1.63139 60.8865 2.33056C60.8865 3.57352 60.8865 4.93302 60.8865 6.40904C60.9634 7.88506 61.0018 9.47761 61.0018 11.1867C61.0018 12.8958 60.9634 14.7214 60.8865 16.6635C60.8865 18.6056 60.8865 20.3535 60.8865 21.9073C57.1195 19.8874 52.8144 18.8775 47.9712 18.8775C43.7429 18.8775 40.2066 19.6155 37.3622 21.0916C34.5177 22.4899 32.2114 24.3155 30.4432 26.5684C28.752 28.8212 27.5219 31.346 26.7532 34.1427C26.0613 36.8617 25.7153 39.503 25.7153 42.0666C25.7153 45.0186 26.1381 47.893 26.9838 50.6897C27.9063 53.4863 29.2517 55.9723 31.0198 58.1474C32.788 60.3226 34.979 62.0706 37.5928 63.3912C40.2835 64.7119 43.4354 65.3722 47.0487 65.3722C47.433 65.3722 47.779 65.3722 48.0865 65.3722C48.4709 65.3722 48.8553 65.3333 49.2396 65.2556V43.698H64Z"
          fill="#E74242"/>
    <path d="M114 43.698V96.6017C118.151 97.1455 121.841 97.495 125.07 97.6504C128.222 97.8835 130.836 98 132.912 98C139.984 98 146.327 96.8736 151.939 94.6207C157.551 92.3678 162.279 89.1439 166.123 84.9489C169.966 80.6762 172.926 75.549 175.002 69.5672C177.001 63.5077 178 56.7491 178 49.2913C178 42.1443 177.039 35.5799 175.117 29.5981C173.195 23.5386 170.351 18.3337 166.584 13.9834C162.74 9.55529 157.974 6.13714 152.285 3.72889C146.519 1.24296 139.869 0 132.335 0C129.106 0 126.339 0.233055 124.032 0.699166C121.649 1.08759 119.343 1.63139 117.114 2.33056C117.114 3.57352 117.114 4.93302 117.114 6.40904C117.037 7.88506 116.998 9.47761 116.998 11.1867C116.998 12.8958 117.037 14.7214 117.114 16.6635C117.114 18.6056 117.114 20.3535 117.114 21.9073C120.88 19.8874 125.186 18.8775 130.029 18.8775C134.257 18.8775 137.793 19.6155 140.638 21.0916C143.482 22.4899 145.789 24.3155 147.557 26.5684C149.248 28.8212 150.478 31.346 151.247 34.1427C151.939 36.8617 152.285 39.503 152.285 42.0666C152.285 45.0186 151.862 47.893 151.016 50.6897C150.094 53.4863 148.748 55.9723 146.98 58.1474C145.212 60.3226 143.021 62.0706 140.407 63.3912C137.717 64.7119 134.565 65.3722 130.951 65.3722C130.567 65.3722 130.221 65.3722 129.914 65.3722C129.529 65.3722 129.145 65.3333 128.76 65.2556V43.698H114Z"
          fill="#E74242"/>
    <path d="M112 22.7115H98.3854C98.2275 29.6748 98.1091 36.7555 98.0302 43.9535C97.9513 51.0733 97.9118 58.7799 97.9118 67.0733C97.9118 72.3936 97.9118 76.6968 97.9118 79.9829C97.9118 83.1907 97.9118 85.8509 97.9118 87.9633C97.9118 89.9976 97.9118 91.6797 97.9118 93.0098C97.9908 94.2616 98.0302 95.5917 98.0302 97H78.1411C78.22 93.5575 78.2989 89.9976 78.3778 86.3203C78.4568 82.5648 78.4962 78.5355 78.4962 74.2323C78.5751 69.8509 78.6146 65.1565 78.6146 60.1491C78.6935 55.0636 78.733 49.4694 78.733 43.3667C78.733 38.9071 78.733 35.0342 78.733 31.7482C78.733 28.4621 78.6935 25.4499 78.6146 22.7115H65V1H112V22.7115Z"
          fill="#E74242"/>
    <path d="M23.4624 116.645C23.4624 117.363 24.271 117.723 25.8882 117.723C28.0757 117.723 30.1733 117.336 32.1812 116.562C32.814 116.32 33.4585 116.055 34.1147 115.766L35.439 114.992C36.8687 114.18 37.8843 113.773 38.4858 113.773C38.7437 113.773 38.9468 113.812 39.0952 113.891C39.4858 114.016 39.7983 114.215 40.0327 114.488C40.4624 114.988 40.6772 115.371 40.6772 115.637C40.6772 115.895 40.6108 116.23 40.478 116.645C40.3452 117.051 40.1655 117.496 39.939 117.98C39.7124 118.457 39.4507 118.953 39.1538 119.469C38.8569 119.984 38.5405 120.477 38.2046 120.945C37.4546 122.016 36.7866 122.789 36.2007 123.266C35.9819 123.539 35.7124 123.844 35.3921 124.18C35.0718 124.516 34.6304 124.871 34.0679 125.246C33.5132 125.629 32.9312 125.965 32.3218 126.254C31.7202 126.551 31.103 126.805 30.4702 127.016C29.8452 127.234 29.2437 127.414 28.6655 127.555C27.5562 127.828 26.7007 127.965 26.0991 127.965C25.5054 127.965 25.0718 127.844 24.7983 127.602C24.5327 127.367 24.3999 127.066 24.3999 126.699C24.3999 126.34 24.5249 125.98 24.7749 125.621C25.0327 125.262 25.3765 124.914 25.8062 124.578C26.2437 124.242 26.7476 123.918 27.3179 123.605C27.896 123.301 28.5015 123.012 29.1343 122.738C30.2827 122.238 31.5601 121.789 32.9663 121.391C33.7632 120.297 34.4741 119.18 35.0991 118.039L34.5249 118.367C34.3296 118.469 34.1382 118.562 33.9507 118.648C32.5366 119.5 30.7515 120.258 28.5952 120.922C26.0327 121.711 23.5913 122.105 21.271 122.105C19.9663 122.105 18.9312 121.672 18.1655 120.805C17.4702 120.016 17.1226 119.016 17.1226 117.805C17.1226 116.523 17.9858 115.145 19.7124 113.668C21.228 112.371 23.2788 111.109 25.8647 109.883C28.2085 108.758 30.6343 107.836 33.1421 107.117C35.6187 106.398 37.6187 106.039 39.1421 106.039C40.0405 106.039 40.6499 106.344 40.9702 106.953C41.0952 107.18 41.1577 107.504 41.1577 107.926C41.1577 108.34 41.0015 108.711 40.689 109.039C40.3765 109.367 39.9702 109.625 39.4702 109.812C38.5718 110.156 37.4702 110.328 36.1655 110.328C34.8608 110.328 33.6812 110.25 32.6265 110.094C31.1421 110.578 29.6304 111.289 28.0913 112.227C26.8022 113.008 25.689 113.852 24.7515 114.758C23.8921 115.586 23.4624 116.215 23.4624 116.645Z"
          fill="white"/>
    <path d="M55.628 114.781C55.628 115.203 55.9874 115.414 56.7062 115.414C57.2374 115.414 57.9327 115.156 58.7921 114.641L59.7296 114.125C60.0187 113.961 60.2687 113.879 60.4796 113.879C60.6983 113.879 60.8702 113.945 60.9952 114.078C61.1202 114.211 61.1827 114.395 61.1827 114.629C61.1827 114.863 61.1046 115.137 60.9483 115.449C60.7921 115.754 60.5772 116.078 60.3038 116.422C60.0304 116.758 59.7101 117.094 59.3429 117.43C58.9757 117.758 58.5812 118.055 58.1593 118.32C57.2218 118.906 56.3507 119.199 55.546 119.199C54.6944 119.199 54.0147 119.055 53.5069 118.766C53.3507 118.672 53.1983 118.574 53.0499 118.473C52.214 119.426 51.003 120.301 49.4171 121.098C47.7296 121.941 46.2569 122.363 44.9991 122.363C43.6788 122.363 42.6358 121.844 41.8702 120.805C41.253 119.961 40.9444 119.105 40.9444 118.238C40.9444 116.988 41.6124 115.797 42.9483 114.664C43.9327 113.836 44.8819 113.207 45.796 112.777C46.7179 112.348 47.5499 112.016 48.2921 111.781C49.8624 111.289 51.2765 111.043 52.5343 111.043C53.0968 111.043 53.5968 111.152 54.0343 111.371C54.4796 111.582 54.8077 111.797 55.0187 112.016C55.5187 112.508 55.7687 113.137 55.7687 113.902C55.7687 114.129 55.7452 114.305 55.6983 114.43C55.6515 114.555 55.628 114.672 55.628 114.781ZM46.0421 116.996L46.0304 117.031V117.043C46.0304 117.379 46.1046 117.598 46.253 117.699C46.6124 117.918 46.9913 117.977 47.3897 117.875C47.7882 117.766 48.1671 117.633 48.5265 117.477C49.4171 117.094 50.2218 116.609 50.9405 116.023C50.8155 115.773 50.753 115.516 50.753 115.25C50.753 114.688 50.9991 114.125 51.4913 113.562C50.8663 113.562 50.0226 113.855 48.9601 114.441C47.7882 115.09 46.9093 115.758 46.3233 116.445C46.1358 116.68 46.0421 116.863 46.0421 116.996Z"
          fill="white"/>
    <path d="M72.2429 113.973C73.0085 113.973 73.3913 114.238 73.3913 114.77C73.3913 115.277 73.0319 115.934 72.3132 116.738L71.739 117.336C71.0437 118.047 70.2312 118.746 69.3015 119.434C68.3796 120.121 67.5671 120.664 66.864 121.062C65.2312 121.969 63.7507 122.422 62.4226 122.422C61.1726 122.422 60.153 122.047 59.364 121.297C58.6843 120.648 58.3444 119.965 58.3444 119.246C58.3444 118.527 58.4147 117.812 58.5554 117.102C58.696 116.391 58.8796 115.695 59.1062 115.016C59.5593 113.633 60.0554 112.457 60.5944 111.488C60.7351 111.223 60.8054 111.051 60.8054 110.973H59.2937C58.7233 110.973 58.2819 110.84 57.9694 110.574C57.6569 110.309 57.5007 110.008 57.5007 109.672C57.5007 109.336 57.5632 109.09 57.6882 108.934C57.8132 108.777 57.9694 108.664 58.1569 108.594C58.4226 108.484 58.8132 108.43 59.3288 108.43L62.1999 108.441C62.2624 108.418 62.3874 108.25 62.5749 107.938L63.2897 106.707C63.5944 106.16 63.8991 105.758 64.2038 105.5C64.5163 105.242 64.8796 105.113 65.2937 105.113C65.7155 105.113 66.0671 105.152 66.3483 105.23C66.6374 105.309 66.8796 105.406 67.0749 105.523C67.4577 105.773 67.6491 106.047 67.6491 106.344C67.6491 106.469 67.6062 106.637 67.5202 106.848L66.864 108.441L72.4304 108.43C72.9147 108.43 73.1569 108.68 73.1569 109.18C73.1569 110.367 72.0983 110.961 69.9812 110.961L65.6921 110.973C65.5983 111.02 65.4382 111.246 65.2116 111.652L64.6843 112.625C64.5515 112.867 64.4577 113.051 64.403 113.176L64.1452 113.75C63.6218 114.93 63.3601 115.781 63.3601 116.305C63.3601 116.828 63.4968 117.266 63.7702 117.617C64.0515 117.969 64.4226 118.145 64.8835 118.145C65.3444 118.145 65.7937 118.055 66.2312 117.875C66.6765 117.695 67.1101 117.477 67.5319 117.219C68.2976 116.742 68.8991 116.301 69.3366 115.895C69.7741 115.488 70.1374 115.18 70.4265 114.969C70.4265 114.969 70.6999 114.777 71.2468 114.395C71.6687 114.113 72.0007 113.973 72.2429 113.973Z"
          fill="white"/>
    <path d="M94.4804 113.973C95.246 113.973 95.6288 114.238 95.6288 114.77C95.6288 115.277 95.2694 115.934 94.5507 116.738L93.9765 117.336C93.2812 118.047 92.4687 118.746 91.539 119.434C90.6171 120.121 89.8046 120.664 89.1015 121.062C87.4687 121.969 85.9882 122.422 84.6601 122.422C83.4101 122.422 82.3905 122.047 81.6015 121.297C80.9218 120.648 80.5819 119.965 80.5819 119.246C80.5819 118.527 80.6522 117.812 80.7929 117.102C80.9335 116.391 81.1171 115.695 81.3437 115.016C81.7968 113.633 82.2929 112.457 82.8319 111.488C82.9726 111.223 83.0429 111.051 83.0429 110.973H81.5312C80.9608 110.973 80.5194 110.84 80.2069 110.574C79.8944 110.309 79.7382 110.008 79.7382 109.672C79.7382 109.336 79.8007 109.09 79.9257 108.934C80.0507 108.777 80.2069 108.664 80.3944 108.594C80.6601 108.484 81.0507 108.43 81.5663 108.43L84.4374 108.441C84.4999 108.418 84.6249 108.25 84.8124 107.938L85.5272 106.707C85.8319 106.16 86.1366 105.758 86.4413 105.5C86.7538 105.242 87.1171 105.113 87.5312 105.113C87.953 105.113 88.3046 105.152 88.5858 105.23C88.8749 105.309 89.1171 105.406 89.3124 105.523C89.6952 105.773 89.8866 106.047 89.8866 106.344C89.8866 106.469 89.8437 106.637 89.7577 106.848L89.1015 108.441L94.6679 108.43C95.1522 108.43 95.3944 108.68 95.3944 109.18C95.3944 110.367 94.3358 110.961 92.2187 110.961L87.9296 110.973C87.8358 111.02 87.6757 111.246 87.4491 111.652L86.9218 112.625C86.789 112.867 86.6952 113.051 86.6405 113.176L86.3827 113.75C85.8593 114.93 85.5976 115.781 85.5976 116.305C85.5976 116.828 85.7343 117.266 86.0077 117.617C86.289 117.969 86.6601 118.145 87.121 118.145C87.5819 118.145 88.0312 118.055 88.4687 117.875C88.914 117.695 89.3476 117.477 89.7694 117.219C90.5351 116.742 91.1366 116.301 91.5741 115.895C92.0116 115.488 92.3749 115.18 92.664 114.969C92.664 114.969 92.9374 114.777 93.4843 114.395C93.9062 114.113 94.2382 113.973 94.4804 113.973Z"
          fill="white"/>
    <path d="M106.056 114.781C106.056 115.203 106.416 115.414 107.134 115.414C107.666 115.414 108.361 115.156 109.22 114.641L110.158 114.125C110.447 113.961 110.697 113.879 110.908 113.879C111.126 113.879 111.298 113.945 111.423 114.078C111.548 114.211 111.611 114.395 111.611 114.629C111.611 114.863 111.533 115.137 111.376 115.449C111.22 115.754 111.005 116.078 110.732 116.422C110.458 116.758 110.138 117.094 109.771 117.43C109.404 117.758 109.009 118.055 108.587 118.32C107.65 118.906 106.779 119.199 105.974 119.199C105.123 119.199 104.443 119.055 103.935 118.766C103.779 118.672 103.626 118.574 103.478 118.473C102.642 119.426 101.431 120.301 99.8452 121.098C98.1577 121.941 96.6851 122.363 95.4272 122.363C94.1069 122.363 93.064 121.844 92.2983 120.805C91.6812 119.961 91.3726 119.105 91.3726 118.238C91.3726 116.988 92.0405 115.797 93.3765 114.664C94.3608 113.836 95.3101 113.207 96.2241 112.777C97.146 112.348 97.978 112.016 98.7202 111.781C100.291 111.289 101.705 111.043 102.962 111.043C103.525 111.043 104.025 111.152 104.462 111.371C104.908 111.582 105.236 111.797 105.447 112.016C105.947 112.508 106.197 113.137 106.197 113.902C106.197 114.129 106.173 114.305 106.126 114.43C106.08 114.555 106.056 114.672 106.056 114.781ZM96.4702 116.996L96.4585 117.031V117.043C96.4585 117.379 96.5327 117.598 96.6812 117.699C97.0405 117.918 97.4194 117.977 97.8179 117.875C98.2163 117.766 98.5952 117.633 98.9546 117.477C99.8452 117.094 100.65 116.609 101.369 116.023C101.244 115.773 101.181 115.516 101.181 115.25C101.181 114.688 101.427 114.125 101.919 113.562C101.294 113.562 100.451 113.855 99.3882 114.441C98.2163 115.09 97.3374 115.758 96.7515 116.445C96.564 116.68 96.4702 116.863 96.4702 116.996Z"
          fill="white"/>
    <path d="M128.059 116.645C128.059 117.363 128.868 117.723 130.485 117.723C132.673 117.723 134.77 117.336 136.778 116.562C137.411 116.32 138.055 116.055 138.712 115.766L140.036 114.992C141.466 114.18 142.481 113.773 143.083 113.773C143.341 113.773 143.544 113.812 143.692 113.891C144.083 114.016 144.395 114.215 144.63 114.488C145.059 114.988 145.274 115.371 145.274 115.637C145.274 115.895 145.208 116.23 145.075 116.645C144.942 117.051 144.762 117.496 144.536 117.98C144.309 118.457 144.048 118.953 143.751 119.469C143.454 119.984 143.137 120.477 142.801 120.945C142.051 122.016 141.383 122.789 140.798 123.266C140.579 123.539 140.309 123.844 139.989 124.18C139.669 124.516 139.227 124.871 138.665 125.246C138.11 125.629 137.528 125.965 136.919 126.254C136.317 126.551 135.7 126.805 135.067 127.016C134.442 127.234 133.841 127.414 133.262 127.555C132.153 127.828 131.298 127.965 130.696 127.965C130.102 127.965 129.669 127.844 129.395 127.602C129.13 127.367 128.997 127.066 128.997 126.699C128.997 126.34 129.122 125.98 129.372 125.621C129.63 125.262 129.973 124.914 130.403 124.578C130.841 124.242 131.344 123.918 131.915 123.605C132.493 123.301 133.098 123.012 133.731 122.738C134.88 122.238 136.157 121.789 137.563 121.391C138.36 120.297 139.071 119.18 139.696 118.039L139.122 118.367C138.926 118.469 138.735 118.562 138.548 118.648C137.133 119.5 135.348 120.258 133.192 120.922C130.63 121.711 128.188 122.105 125.868 122.105C124.563 122.105 123.528 121.672 122.762 120.805C122.067 120.016 121.719 119.016 121.719 117.805C121.719 116.523 122.583 115.145 124.309 113.668C125.825 112.371 127.876 111.109 130.462 109.883C132.805 108.758 135.231 107.836 137.739 107.117C140.216 106.398 142.216 106.039 143.739 106.039C144.637 106.039 145.247 106.344 145.567 106.953C145.692 107.18 145.755 107.504 145.755 107.926C145.755 108.34 145.598 108.711 145.286 109.039C144.973 109.367 144.567 109.625 144.067 109.812C143.169 110.156 142.067 110.328 140.762 110.328C139.458 110.328 138.278 110.25 137.223 110.094C135.739 110.578 134.227 111.289 132.688 112.227C131.399 113.008 130.286 113.852 129.348 114.758C128.489 115.586 128.059 116.215 128.059 116.645Z"
          fill="white"/>
    <path d="M160.225 114.781C160.225 115.203 160.584 115.414 161.303 115.414C161.834 115.414 162.53 115.156 163.389 114.641L164.326 114.125C164.616 113.961 164.866 113.879 165.076 113.879C165.295 113.879 165.467 113.945 165.592 114.078C165.717 114.211 165.78 114.395 165.78 114.629C165.78 114.863 165.701 115.137 165.545 115.449C165.389 115.754 165.174 116.078 164.901 116.422C164.627 116.758 164.307 117.094 163.94 117.43C163.573 117.758 163.178 118.055 162.756 118.32C161.819 118.906 160.948 119.199 160.143 119.199C159.291 119.199 158.612 119.055 158.104 118.766C157.948 118.672 157.795 118.574 157.647 118.473C156.811 119.426 155.6 120.301 154.014 121.098C152.326 121.941 150.854 122.363 149.596 122.363C148.276 122.363 147.233 121.844 146.467 120.805C145.85 119.961 145.541 119.105 145.541 118.238C145.541 116.988 146.209 115.797 147.545 114.664C148.53 113.836 149.479 113.207 150.393 112.777C151.315 112.348 152.147 112.016 152.889 111.781C154.459 111.289 155.873 111.043 157.131 111.043C157.694 111.043 158.194 111.152 158.631 111.371C159.076 111.582 159.405 111.797 159.616 112.016C160.116 112.508 160.366 113.137 160.366 113.902C160.366 114.129 160.342 114.305 160.295 114.43C160.248 114.555 160.225 114.672 160.225 114.781ZM150.639 116.996L150.627 117.031V117.043C150.627 117.379 150.701 117.598 150.85 117.699C151.209 117.918 151.588 117.977 151.987 117.875C152.385 117.766 152.764 117.633 153.123 117.477C154.014 117.094 154.819 116.609 155.537 116.023C155.412 115.773 155.35 115.516 155.35 115.25C155.35 114.688 155.596 114.125 156.088 113.562C155.463 113.562 154.619 113.855 153.557 114.441C152.385 115.09 151.506 115.758 150.92 116.445C150.733 116.68 150.639 116.863 150.639 116.996Z"
          fill="white"/>
</svg>
